<svg class="arrow-long-right" viewBox="0 0 25 9" xmlns="http://www.w3.org/2000/svg">
  <path clip-rule="evenodd" d="M23.0323 3.71972C23.3084 3.71972 23.5323 3.94358 23.5323 4.21972C23.5323 4.46518 23.3554 4.66933 23.1221 4.71166L23.0323 4.71972H1.44043C1.16429 4.71972 0.94043 4.49586 0.94043 4.21972C0.94043 3.97426 1.1173 3.77011 1.35055 3.72777L1.44043 3.71972H23.0323Z"/>
  <path clip-rule="evenodd" d="M19.3992 0.670747C19.5609 0.48602 19.8284 0.448855 20.0318 0.57059L20.1048 0.623711L23.8599 3.90943C24.0622 4.0865 24.0847 4.38601 23.9273 4.59029L23.8599 4.662L20.1048 7.94772C19.897 8.12956 19.5811 8.1085 19.3992 7.90068C19.2376 7.71595 19.2363 7.44584 19.3839 7.26039L19.4463 7.19514L22.771 4.286L19.4463 1.37629C19.2615 1.21465 19.2244 0.947106 19.3461 0.74369L19.3992 0.670747Z"/>
</svg>
