<svg viewBox="0 0 300 113" fill="none" xmlns="http://www.w3.org/2000/svg">
  <path d="M55.5 85.875L46.3125 57L57.9375 21H54.375L44.625 51.5625L34.875 21H31.3125L42.9375 57L33.75 85.875L13.125 21H9.375L31.5 90.375H35.625L44.625 62.4375L53.625 90.375H57.75L79.875 21H76.5L55.5 85.875ZM290.625 24.1875V20.8125H271.125V90.1875H290.625V86.8125H274.5V49.875H287.625V46.5H274.5V24H290.625V24.1875ZM236.625 90.375H240V21H236.625V90.375ZM262.312 20.8125H258.375L241.312 48L258.938 90.1875H262.5L244.875 48.375L262.312 20.8125ZM215.625 90.375H219V21H215.625V90.375ZM190.312 20.8125H186.938V90.1875H206.438V86.8125H190.312V20.8125ZM87.9375 90.375H91.3125V21H87.9375V90.375ZM112.125 20.8125H108.75V90.1875H128.25V86.8125H112.125C112.125 87 112.125 20.8125 112.125 20.8125ZM152.25 20.8125H137.438V90.1875H139.125C141.938 90.1875 144.562 89.8125 147.75 88.875C154.5 86.8125 161.438 81.75 166.875 74.8125C171.188 69.375 176.438 60.1875 177.562 47.8125C177.75 46.875 178.688 36 171.938 28.3125C167.438 23.4375 160.875 20.8125 152.25 20.8125ZM174.375 47.4375C172.875 66.75 159.188 82.125 146.812 85.6875C144.188 86.4375 142.312 86.8125 140.812 86.8125V24.1875H152.25C159.938 24.1875 165.562 26.25 169.312 30.5625C175.5 37.3125 174.375 47.4375 174.375 47.4375Z" fill="black"/>
  <path d="M174.938 22.5H167.812L171.75 13.6875H160.125L156.375 29.0625H161.813L159 40.125L174.938 22.5Z" fill="black"/>
</svg>
